<svg width="75" height="75" viewBox="0 0 75 75" fill="none" xmlns="http://www.w3.org/2000/svg">
<path d="M37.5 75C58.2107 75 75 58.2107 75 37.5C75 16.7893 58.2107 0 37.5 0C16.7893 0 0 16.7893 0 37.5C0 58.2107 16.7893 75 37.5 75Z" fill="#88C9F9"/>
<path d="M53.5748 3.6582C51.4456 4.84154 49.6748 6.84154 47.2664 6.11862C43.3602 4.94779 38.1519 2.34362 34.7664 5.59779C31.381 8.85195 30.5998 11.8478 34.7664 11.7186C38.9331 11.5895 41.7977 6.63945 43.881 8.72279C45.9644 10.8061 45.4414 12.4999 40.4956 13.1499C35.5498 13.7999 30.2081 14.5832 27.3435 14.5832C24.4789 14.5832 23.8269 16.2749 25.781 18.0999C27.7352 19.9249 24.6081 20.052 21.3539 21.8749C18.0998 23.6978 22.1352 24.479 24.8706 26.0415C27.606 27.604 29.6873 25.6499 30.8602 23.0457C32.0331 20.4415 37.0706 17.3165 39.1727 17.7082C41.2769 18.0999 41.2769 19.1415 40.8852 20.9624C40.4935 22.7832 42.4477 22.2645 42.5769 20.1811C42.706 18.0978 45.0519 16.5353 46.8727 16.4061C48.6935 16.277 50.2581 18.8811 48.1748 20.1811C46.0914 21.4811 44.0081 22.5249 46.6123 23.177C49.2164 23.829 51.0394 27.2145 48.0456 28.6457C45.0519 30.077 39.8435 30.9895 37.4998 29.8165C35.156 28.6436 29.8164 26.952 28.3852 27.8624C26.9539 28.7728 26.1727 29.7165 24.4789 30.352C22.7873 30.9874 15.8852 34.1124 15.7539 38.1499C15.6227 42.1874 15.4956 46.7457 18.2289 46.8749C20.9623 47.004 27.6039 45.1832 29.6873 43.4895C31.7706 41.7957 34.6352 42.1874 35.5456 44.1395C36.456 46.0915 35.806 47.2645 34.8956 50.3895C33.9852 53.5145 35.4914 55.077 36.9519 57.8103C38.4123 60.5436 39.5831 62.1061 39.5831 64.0603C39.5831 66.0145 41.6664 67.9665 44.7914 64.7103C47.9164 61.454 50.781 55.0749 52.0831 52.7311C53.3852 50.3874 54.4269 45.179 55.9894 44.1374C57.5519 43.0957 60.0269 40.6207 58.2019 41.0124C56.3769 41.404 52.7331 40.8832 51.8227 38.279C50.9123 35.6749 47.006 30.727 48.8269 30.2061C50.6477 29.6853 52.7331 33.102 53.5144 34.7145C54.2956 36.327 55.3373 38.279 56.8998 38.7999C58.4623 39.3207 61.8477 35.3145 62.8894 34.7145C63.931 34.1124 63.1498 31.6395 61.0664 31.8999C58.9831 32.1603 56.2498 31.8999 56.2498 30.5999C56.2498 29.2999 58.8539 27.604 60.9373 27.9957C63.0206 28.3874 64.5831 29.0374 65.8852 30.5999C67.1873 32.1624 69.7914 35.027 70.8331 36.8499C71.8748 38.6728 72.656 38.9332 73.1769 35.679C73.5227 33.5165 73.9831 32.327 74.406 31.0499C72.2956 18.9061 64.3644 8.79362 53.5748 3.6582Z" fill="#5C913B"/>
</svg>
